<svg width="1521" height="1261" viewBox="0 0 1521 1261" fill="none" xmlns="http://www.w3.org/2000/svg">
<path d="M328.671 458.477C313.971 504.257 318.539 493.138 297.422 527.427C229.329 637.997 261.145 573.806 278.538 695.286C281.519 716.109 210.215 747.765 206.791 757.665C189.016 809.047 192.592 826.227 176.566 858.123C160.602 889.895 202.806 994.474 206.589 1032.13C214.003 1105.9 184.259 1139.01 194.197 1158.27C218.055 1204.49 163.73 1236.09 154.566 1157.02C153.397 1146.93 145.205 1147.46 140.626 1118.86C133.868 1076.65 133.288 1033.2 126.994 1008.99C124.228 998.354 111.789 959.2 103.685 967.349C65.3246 1005.93 102.608 981.641 104.255 1145.31C104.432 1162.89 99.9611 1183.88 82.3242 1182.66C59.4304 1181.07 90.9733 1128.4 40.635 1094.37C31.3913 1088.12 26.4328 1079.4 25.1593 1068.11C23.7228 1055.36 17.4876 1044.09 12.6117 1032.43C-1.53776 998.607 -11.9376 1007.27 59.4674 858.661C62.7791 851.769 65.2214 788.432 65.104 776.21C64.9607 761.342 52.9652 744.229 38.6693 738.911C3.25933 725.738 -4.53762 698.527 2.20162 689.895C32.8483 650.643 36.8303 645.234 44.9753 642.248C85.8344 627.266 94.8442 586.73 127.812 580.91C155.734 575.982 181.722 594.478 176.837 657.093C173.522 699.587 166.369 701.769 175.455 702.002C201.904 702.681 244.07 688.795 241.76 679.891C232.433 643.951 236.697 652.204 228.323 642.737C169.031 575.706 214.3 625.449 267.318 428.221C292.226 335.562 271.562 295.683 311.194 273.576C384.341 232.775 389.836 246.236 388.909 230.635C388.354 221.286 387.926 192.236 380.382 180.492C372.763 168.634 347.519 56.7606 423.744 62.8897C499.72 68.9983 445.128 219.885 464.325 223.859C492.076 229.605 519.877 235.04 547.901 239.303C575.044 243.432 671.936 343.718 714.35 466.043C716.588 472.499 720.975 477.338 725.028 482.385C736.26 496.368 741.854 513.009 748.053 529.399C749.893 534.264 735.646 556.657 731.083 562.197C724.018 570.776 720.151 568.788 715.622 565.543C701.086 555.128 686.384 533.727 682.14 529.33C675.579 522.533 676.064 517.472 671.97 478.108C670.391 462.929 623.198 402.081 615.269 392.517C601.975 376.48 585.188 364.497 567.663 353.492C564.466 351.485 563.335 353.289 562.072 355.605C544.521 387.791 547.702 402.332 544.065 469.551C543.483 480.301 550.572 517.919 552.819 530.601C554.955 542.654 562.703 557.61 545.834 568.471C529.668 578.88 548.838 579.935 567.351 757.166C582.407 901.285 565.713 1223.59 565.713 1223.59C582.158 1247.88 571.782 1265.13 554.623 1259.37C520.835 1248.02 499.208 1213.03 481.763 1217.76C477.511 1218.92 475.6 1032.47 473.82 994.771C469.03 893.248 485.852 831.228 434.058 712.4C433.558 711.252 433.36 709.704 431.629 708.941C409.893 738.046 367.436 1166.57 357.034 1180.11C354.169 1183.84 353.796 1183.39 358.044 1220.08C359.002 1228.36 359.285 1228.49 351.841 1231.8C333.146 1240.11 314.209 1247.69 293.769 1250.71C279.447 1252.83 264.369 1249.22 268.898 1235.57C273.545 1221.56 293.217 1204.87 294.11 1151.06C295.756 1051.93 294.636 924.147 297.323 888.468C311.681 697.737 322.656 609.003 325.026 551.7C328.709 462.543 331.531 464.969 328.671 458.477ZM103.549 701.486C110.737 700.042 105.473 696.804 93.8653 681.386C91.4687 678.203 92.3154 678.682 68.9009 679.334C51.0924 679.83 49.5653 694.809 55.7729 697.218C75.1306 704.73 86.2755 704.957 103.549 701.486Z" fill="#FD841F" fill-opacity="0.8"/>
<path d="M507.154 94.1348C506.215 87.1266 486.321 70.1912 488.335 67.8468C489.824 66.1128 491.691 67.6829 493.163 68.7677C499.463 73.4102 512.668 83.2222 512.668 83.2222C522.56 90.4716 505.963 65.8316 508.831 57.2469C511.73 58.9754 548.037 105.443 556.23 92.1307C562.056 82.6629 558.525 81.2882 558.281 74.2397C558.068 68.1052 562.907 68.7236 565.306 71.1634C570.626 76.5756 573.835 95.4741 581.788 129.817C583.474 137.099 672.309 232.375 676.891 237.245C706.064 268.25 753.816 330.125 842.833 329.812C848.432 329.792 848.841 329.263 848.81 322.763C848.773 315.277 850.598 315.8 820.259 316.315C817.602 316.36 815.902 315.471 814.957 312.974C794.351 258.555 784.693 190.066 841.647 177.393C907.194 162.806 952.182 199.297 929.179 304.533C927.729 311.166 927.873 311.577 913.564 309.875C906.384 309.021 906.934 309.243 906.935 318.688C906.938 327.437 907.857 328.091 916.358 326.353C989.936 311.303 1057.02 243.79 1102.66 183.711C1182.46 78.6837 1169.28 102.33 1173.98 76.5795C1192.38 -24.3352 1190.73 49.3626 1194.8 51.0966C1196.8 51.945 1222.93 25.1252 1232.48 2.67135C1233 1.4479 1233.4 -0.313619 1235.09 0.0479806C1238.97 0.880684 1235.14 16.3609 1238.33 19.0458C1245.47 11.4443 1253.88 -19.933 1249.28 38.3996C1248.42 49.2854 1258.56 37.1754 1261.86 41.8588C1264.41 45.4804 1211.98 85.6053 1208.64 91.4981C1184.64 133.799 1156.08 173.07 1128.35 212.905C1046.62 330.314 1061.1 316.361 1021.19 354.012C1001.12 372.947 1006.12 365.482 999.967 380.155C983.031 420.542 968.684 467.916 973.466 511.434C980.724 577.487 968.887 582.209 980.887 704.738C1003 930.535 978.997 911.86 1002.06 973.001C1006.43 984.601 1060.81 1142.25 1051.58 1143.1C1030.05 1145.07 1029.48 1145.4 1028.76 1148.71C1027.33 1155.24 1016.11 1145.35 1014.5 1157.45C1013.13 1167.8 1008.82 1182.34 997.861 1185.08C967.674 1192.63 943.68 1187.94 953.53 1179.3C964.384 1169.77 961.024 1155.87 964.374 1144.04C965.512 1140.02 960.24 1139.8 960.397 1136.82C961.135 1122.7 944.348 1133.75 941.548 1121.15C931.568 1076.25 865.33 795.747 850.185 751.281C850.185 751.281 843.577 815.711 812.231 1044.46C799.68 1136.04 806.605 1113.26 789.303 1111.91C786.669 1111.71 784.414 1111.86 785.713 1115.53C786.041 1116.46 786.25 1117.75 785.389 1118.01C781.033 1119.34 781.155 1123.21 780.556 1126.47C778.384 1138.3 772.154 1148.61 768.373 1159.83C765.707 1167.73 760.713 1177.59 752.576 1175.86C726.55 1170.3 723.386 1168.11 722.705 1164.64C716.328 1132.14 721.583 1135.26 724.133 1126.37C730.382 1104.58 713.963 1116.99 716.421 1103.01C719.062 1088.01 719.024 1087.6 706.411 1079.03C691.081 1068.61 696.599 1080.38 713.972 920.068C728.686 784.289 727.189 742.007 734.089 709.544C767.689 551.456 823.264 519.868 787.59 451.915C773.457 424.993 594.288 207.702 567.889 167.603C555.406 148.642 526.744 123.278 495.986 112.624C495.199 112.351 491.252 110.835 491.573 109.413C492.607 104.826 508.588 112.98 509.748 110.255C510.582 108.293 508.802 108.434 486.148 86.4829C482.783 83.2222 486.017 81.2173 488.839 82.9788C493.5 85.8881 498.14 88.8314 502.813 91.7218C504.219 92.5939 505.705 93.3352 507.154 94.1348Z" fill="#FD841F" fill-opacity="0.8"/>
<path d="M1472.31 571.036C1473.72 577.665 1473.65 574.532 1512.9 574.178C1522.03 574.096 1523.31 588.265 1517.4 594.255C1514.57 597.127 1510.14 599.793 1513.31 605.481C1516.81 611.759 1472.8 608.372 1466.92 613.812C1376.54 697.467 1380.24 689.464 1388.66 731.592C1389.56 736.095 1389.06 736.573 1367.11 745.852C1360.91 748.472 1363 742.885 1366.43 838.054C1367.11 856.714 1370.67 859.192 1363.05 867.149C1302.76 930.155 1347.02 817.86 1350.98 1152.43C1351.17 1168.47 1342.43 1163.8 1343.76 1172.28C1345.35 1182.31 1342.29 1192 1341.6 1201.87C1341.1 1209.17 1318.46 1212.02 1310.93 1212.53C1302.34 1213.12 1314.12 1175.89 1299.85 1170.37C1295.02 1168.51 1292.28 1163.18 1286.88 1161.86C1284.93 1161.38 1285.55 1159.3 1285.57 1157.89C1286.53 1088.96 1277.03 1050.99 1268.73 1013.28C1264.89 995.817 1248.52 1064.61 1246.26 1109.7C1243.9 1156.7 1250.22 1159.61 1238.29 1166.07C1229.83 1170.66 1231.64 1175.7 1227.34 1176.62C1214.61 1179.35 1226.14 1199.34 1209.49 1202.73C1198.01 1205.07 1185.5 1215.33 1185.23 1205.72C1184.95 1195.53 1183.36 1185.35 1185.77 1175.17C1186.66 1171.4 1186.03 1167.7 1181.74 1166.04C1177.71 1164.48 1177.27 1159.05 1172.8 1157.91C1169.92 1157.18 1176.74 1001.4 1207.21 921.5C1212.19 908.447 1200.69 822.498 1182.38 771.191C1178.78 761.103 1171.27 759.263 1163.46 756.683C1157.6 754.75 1158.26 753.702 1158.28 732.036C1158.29 711.126 1020.1 625.006 1006.85 610.184C1001.38 604.055 1025.09 609.98 1022.12 601.925C1015.96 585.213 1018.47 586.466 1025.34 571.162C1030.27 560.192 1043.16 593.413 1047.41 593.15C1050.04 592.987 1055.4 573.065 1056.65 583.045C1060.53 614.03 1059.41 615.11 1063.46 618.301C1104.62 650.682 1163.88 694.832 1216.15 693.842C1231.66 693.548 1223.98 688.425 1221.36 683.958C1197.87 643.943 1218.94 665.863 1217.64 652.721C1211.65 592.376 1246.99 574.599 1281.66 586.373C1307.7 595.218 1308.89 625.754 1303.92 652.829C1301.72 664.804 1322.5 643.114 1302.82 686.106C1301.29 689.446 1302.72 690.396 1305.78 688.977C1371.41 658.55 1421.1 631.445 1472.31 571.036Z" fill="#FD841F" fill-opacity="0.8"/>
</svg>
