<svg width="532" height="532" viewBox="0 0 532 532" fill="none" xmlns="http://www.w3.org/2000/svg">
<path d="M297.055 387.221L309.716 308.09L224.255 273.272L211.594 393.551L297.055 387.221Z" fill="#A0616A"/>
<path d="M382.947 504.164C375.609 507.742 368.132 510.971 360.543 513.836C345.365 519.579 329.698 523.912 313.626 526.806C297.917 529.642 281.788 531.082 265.66 531.082C243.871 531.082 222.208 528.468 201.258 523.297C193.054 521.285 184.78 518.826 176.646 515.959C175.794 515.652 174.927 515.345 174.075 515.037C163.984 511.376 154.061 507.085 144.515 502.236C143.229 501.593 141.944 500.935 140.658 500.236C139.232 499.51 137.821 498.742 136.395 497.945C134.578 496.953 132.775 495.918 130.972 494.87C124.935 491.376 118.995 487.602 113.321 483.675L112.943 483.424C112.608 483.187 112.273 482.963 111.951 482.725C112.161 481.621 112.357 480.614 112.538 479.72C113.237 476.212 113.698 474.284 113.698 474.284L151.964 395.234L162.628 373.209L167.827 371.07L207.1 354.928H303.088L333.374 367.45C333.374 367.45 333.528 368.023 333.835 369.128C336.854 379.959 354.464 441.454 381.787 501.62C382.164 502.458 382.556 503.311 382.947 504.164L382.947 504.164V504.164Z" fill="#F9A826"/>
<path d="M275.459 333.528C323.59 333.528 362.609 294.509 362.609 246.378C362.609 198.246 323.59 159.228 275.459 159.228C227.327 159.228 188.309 198.246 188.309 246.378C188.309 294.509 227.327 333.528 275.459 333.528Z" fill="#A0616A"/>
<path d="M167.98 370.32L167.83 371.07L141.26 497.4L141.03 498.5L140.66 500.24C139.23 499.51 137.82 498.74 136.4 497.95C134.58 496.95 132.78 495.92 130.97 494.87C124.94 491.38 119 487.6 113.32 483.68L112.94 483.42C112.61 483.19 112.27 482.96 111.95 482.73C107.61 479.7 103.38 476.54 99.2501 473.28C99.22 473.26 99.2001 473.24 99.1701 473.21C91.8001 467.27 84.7001 460.88 77.91 454.09C73.5301 449.71 69.3201 445.2 65.29 440.57L65.9001 438.01L65.9601 437.75L66.72 434.49C73.48 405.94 96.35 384.03 125.16 378.51L163.44 371.18L167.98 370.32H167.98Z" fill="#F9A826"/>
<path d="M439.396 467.225C428.117 476.827 416.028 485.521 403.268 493.152C402.024 493.906 400.752 494.646 399.481 495.387C394.058 498.518 388.537 501.439 382.947 504.165C375.609 507.742 368.132 510.971 360.543 513.836L359.956 511.068L329.95 368.387L333.835 369.128L372.773 376.591C401.577 382.112 424.456 404.026 431.206 432.578L438.655 464.123L439.396 467.225H439.396V467.225Z" fill="#F9A826"/>
<path d="M375.819 269.674C373.555 278.116 362.164 315.837 332.996 323.775C327.266 325.341 313.598 327.144 317.217 323.775C318.042 323.007 318.839 322.252 319.635 321.511C351.291 291.742 364.205 273.546 358.307 233.155C354.561 207.438 311.906 184.084 287.909 181.764C277.791 180.787 264.877 184.21 256.352 193.03C242.278 207.564 244.598 252.177 236.799 278.382C234.703 285.397 231.894 291.099 227.854 294.551C225.339 296.704 223.731 293.964 222.543 289.478C220.014 279.946 219.357 262.491 215.765 267.423C205.381 281.722 215.276 300.673 218.267 307.983C218.882 309.479 219.511 310.917 220.14 312.287V312.301C220.503 313.083 220.88 313.867 221.244 314.608V314.621C231.222 334.97 243.214 342.251 253.78 354.928C257.931 359.889 261.858 365.661 265.366 373.377C267.77 378.66 269.503 383.971 270.691 389.183C276.743 415.318 269.559 439.064 267.616 445.521C263.549 458.966 256.561 482.068 236.058 495.107C210.314 511.488 186.821 497.051 175.584 512.606C175.444 512.788 175.318 512.969 175.193 513.151C174.773 513.78 174.396 514.409 174.075 515.037C163.984 511.376 154.061 507.085 144.515 502.236C143.229 501.593 141.944 500.935 140.658 500.237C139.232 499.51 137.821 498.742 136.395 497.945C136.339 496.854 136.283 495.765 136.241 494.661C135.417 475.751 136.661 454.969 141.371 434.242C144.389 421.007 147.38 407.883 151.964 395.235C154.955 386.99 158.617 378.938 163.439 371.182C167.296 364.949 171.88 358.897 177.443 353.083C189.658 340.323 200.517 334.998 202.236 321.525C204.696 302.294 184.668 296.508 177.443 267.423C172.509 247.536 167.352 218.872 172.355 199.556C177.08 181.304 181.188 165.469 194.899 149.955C198.197 146.237 225.269 120.381 256.631 116.133C271.082 114.19 283.968 132.695 301.438 136.678C321.522 141.249 333.024 143.862 344.261 152.457C363.255 166.964 368.607 188.655 373.569 208.809C377.454 224.574 382.486 244.965 375.819 269.674L375.819 269.674H375.819Z" fill="#2F2E41"/>
</svg>
