<svg width="123" height="123" viewBox="0 0 123 123" fill="none" xmlns="http://www.w3.org/2000/svg">
<g clip-path="url(#clip0_63_2)">
<path d="M61.44 3.93932e-05C75.6599 -0.0040253 89.4413 4.92289 100.436 13.9412C111.43 22.9595 118.957 35.5112 121.734 49.4573C124.511 63.4034 122.366 77.881 115.665 90.423C108.964 102.965 98.1214 112.795 84.9846 118.239C71.8478 123.682 57.23 124.402 43.622 120.275C30.014 116.149 18.258 107.431 10.3572 95.608C2.45643 83.7849 -1.10016 69.5881 0.293473 55.4366C1.68711 41.2851 7.94474 28.0548 18 18C23.6981 12.2861 30.4691 7.75443 37.9239 4.6654C45.3788 1.57638 53.3705 -0.00911226 61.44 3.93932e-05V3.93932e-05ZM88.6 56.82V66.06C88.6 67.1209 88.1786 68.1383 87.4285 68.8885C86.6783 69.6386 85.6609 70.06 84.6 70.06H70V84.62C70 85.6809 69.5786 86.6983 68.8285 87.4485C68.0783 88.1986 67.0609 88.62 66 88.62H56.82C55.7592 88.62 54.7417 88.1986 53.9916 87.4485C53.2415 86.6983 52.82 85.6809 52.82 84.62V70H38.26C37.1992 70 36.1817 69.5786 35.4316 68.8285C34.6815 68.0783 34.26 67.0609 34.26 66V56.82C34.26 55.7592 34.6815 54.7418 35.4316 53.9916C36.1817 53.2415 37.1992 52.82 38.26 52.82H52.84V38.26C52.84 37.1992 53.2615 36.1818 54.0116 35.4316C54.7617 34.6815 55.7792 34.26 56.84 34.26H66.08C67.1409 34.26 68.1583 34.6815 68.9084 35.4316C69.6586 36.1818 70.08 37.1992 70.08 38.26V52.84H84.62C85.6809 52.84 86.6983 53.2615 87.4484 54.0116C88.1986 54.7618 88.62 55.7792 88.62 56.84L88.6 56.82ZM97.43 25.45C89.1028 17.1163 78.1434 11.9278 66.4195 10.7688C54.6955 9.60979 42.9324 12.5519 33.1346 19.0939C23.3367 25.6358 16.1105 35.3728 12.6871 46.6456C9.26382 57.9184 9.85526 70.0294 14.3607 80.915C18.8661 91.8006 27.0067 100.787 37.3954 106.343C47.784 111.899 59.7778 113.681 71.3331 111.386C82.8883 109.09 93.29 102.858 100.766 93.7526C108.241 84.6471 112.328 73.2312 112.33 61.45C112.339 54.764 111.027 48.142 108.47 41.9642C105.913 35.7863 102.161 30.1743 97.43 25.45V25.45Z" fill="#808080"/>
</g>
<defs>
<clipPath id="clip0_63_2">
<rect width="122.88" height="122.88" fill="white"/>
</clipPath>
</defs>
</svg>
