<svg width="1117" height="1117" viewBox="0 0 1117 1117" fill="none" xmlns="http://www.w3.org/2000/svg">
<circle cx="558.5" cy="558.5" r="558.5" fill="#FD841F" fill-opacity="0.8"/>
<path d="M402.02 325.504C395.517 345.759 397.538 340.84 388.195 356.011C358.067 404.932 372.144 376.531 379.839 430.28C381.158 439.493 349.61 453.499 348.095 457.879C340.23 480.613 341.813 488.214 334.722 502.326C327.659 516.384 346.332 562.655 348.006 579.315C351.286 611.957 338.126 626.606 342.523 635.125C353.079 655.577 329.043 669.556 324.989 634.574C324.471 630.107 320.847 630.344 318.821 617.689C315.83 599.012 315.574 579.789 312.789 569.078C311.565 564.371 306.062 547.047 302.476 550.653C285.504 567.722 302 556.976 302.728 629.391C302.807 637.169 300.829 646.457 293.025 645.916C282.896 645.213 296.852 621.911 274.58 606.855C270.49 604.09 268.296 600.231 267.733 595.233C267.097 589.595 264.338 584.605 262.181 579.448C255.921 564.483 251.319 568.316 282.912 502.565C284.378 499.515 285.458 471.492 285.406 466.084C285.343 459.506 280.035 451.934 273.71 449.581C258.043 443.753 254.593 431.714 257.575 427.894C271.135 410.527 272.897 408.134 276.5 406.813C294.578 400.184 298.565 382.249 313.151 379.674C325.505 377.494 337.003 385.677 334.842 413.381C333.376 432.182 330.211 433.148 334.231 433.251C345.933 433.552 364.589 427.407 363.567 423.468C359.441 407.566 361.327 411.218 357.622 407.029C331.388 377.372 351.418 399.38 374.875 312.118C385.896 271.121 376.753 253.476 394.288 243.695C426.652 225.643 429.083 231.598 428.673 224.696C428.427 220.56 428.238 207.706 424.9 202.51C421.529 197.264 410.36 147.766 444.086 150.478C477.701 153.18 453.547 219.94 462.041 221.698C474.319 224.24 486.619 226.645 499.018 228.531C511.028 230.358 553.897 274.729 572.663 328.852C573.654 331.708 575.594 333.849 577.388 336.082C582.357 342.269 584.832 349.632 587.575 356.883C588.389 359.036 582.086 368.944 580.067 371.395C576.941 375.19 575.23 374.311 573.226 372.875C566.794 368.267 560.29 358.798 558.412 356.853C555.509 353.845 555.724 351.606 553.912 334.19C553.214 327.474 532.333 300.552 528.825 296.32C522.943 289.225 515.516 283.923 507.762 279.054C506.347 278.166 505.847 278.964 505.288 279.989C497.523 294.229 498.931 300.663 497.321 330.404C497.063 335.16 500.2 351.804 501.194 357.415C502.139 362.748 505.568 369.365 498.104 374.171C490.951 378.776 499.433 379.243 507.624 457.658C514.285 521.423 506.899 664.024 506.899 664.024C514.175 674.772 509.585 682.406 501.992 679.856C487.043 674.834 477.474 659.356 469.756 661.449C467.875 661.959 467.029 579.467 466.242 562.786C464.122 517.867 471.565 490.427 448.649 437.852C448.427 437.344 448.34 436.659 447.574 436.321C437.957 449.199 419.172 638.797 414.57 644.79C413.302 646.441 413.137 646.239 415.017 662.472C415.441 666.135 415.566 666.195 412.272 667.658C404 671.334 395.622 674.69 386.578 676.027C380.241 676.964 373.571 675.368 375.574 669.328C377.631 663.13 386.334 655.743 386.729 631.934C387.458 588.075 386.962 531.538 388.151 515.752C394.504 431.364 399.359 392.104 400.408 366.75C402.038 327.303 403.286 328.376 402.02 325.504ZM302.416 433.023C305.597 432.384 303.267 430.951 298.132 424.13C297.071 422.721 297.446 422.933 287.086 423.222C279.207 423.441 278.531 430.068 281.278 431.134C289.842 434.458 294.773 434.559 302.416 433.023Z" fill="white"/>
<path d="M480.99 164.302C480.575 161.201 471.772 153.708 472.663 152.671C473.322 151.903 474.148 152.598 474.8 153.078C477.587 155.132 483.43 159.473 483.43 159.473C487.806 162.681 480.463 151.779 481.732 147.981C483.014 148.745 499.078 169.305 502.703 163.415C505.281 159.226 503.719 158.618 503.611 155.499C503.517 152.785 505.658 153.059 506.719 154.138C509.073 156.533 510.493 164.894 514.012 180.089C514.758 183.311 554.062 225.466 556.09 227.62C568.997 241.339 590.125 268.715 629.51 268.576C631.988 268.568 632.168 268.333 632.155 265.458C632.139 262.146 632.946 262.377 619.523 262.605C618.347 262.625 617.595 262.231 617.177 261.127C608.06 237.049 603.787 206.746 628.986 201.139C657.987 194.685 677.891 210.83 667.714 257.392C667.072 260.326 667.136 260.508 660.805 259.755C657.628 259.378 657.871 259.476 657.872 263.654C657.873 267.526 658.28 267.815 662.041 267.046C694.595 260.387 724.275 230.516 744.471 203.934C779.775 157.465 773.946 167.927 776.025 156.534C784.168 111.885 783.435 144.492 785.238 145.26C786.121 145.635 797.683 133.769 801.909 123.834C802.139 123.293 802.315 122.513 803.062 122.673C804.782 123.042 803.084 129.891 804.496 131.079C807.656 127.715 811.377 113.833 809.34 139.642C808.959 144.458 813.447 139.1 814.907 141.172C816.036 142.775 792.839 160.528 791.361 163.135C780.744 181.851 768.104 199.226 755.835 216.851C719.674 268.798 726.082 262.625 708.424 279.284C699.544 287.661 701.756 284.359 699.034 290.85C691.541 308.72 685.193 329.68 687.308 348.934C690.52 378.16 685.283 380.249 690.592 434.462C700.377 534.365 689.756 526.102 699.959 553.154C701.894 558.286 725.952 628.038 721.869 628.412C712.343 629.285 712.093 629.429 711.773 630.896C711.142 633.786 706.177 629.409 705.466 634.762C704.858 639.343 702.952 645.775 698.102 646.988C684.746 650.327 674.13 648.254 678.488 644.429C683.29 640.215 681.804 634.064 683.286 628.831C683.789 627.053 681.457 626.954 681.526 625.633C681.853 619.387 674.425 624.278 673.187 618.704C668.771 598.835 639.464 474.728 632.763 455.054C632.763 455.054 629.839 483.561 615.97 584.771C610.417 625.289 613.481 615.21 605.826 614.615C604.66 614.525 603.663 614.593 604.237 616.214C604.383 616.625 604.475 617.197 604.094 617.313C602.167 617.902 602.221 619.615 601.956 621.056C600.995 626.288 598.238 630.85 596.565 635.814C595.386 639.312 593.176 643.675 589.576 642.907C578.061 640.449 576.661 639.478 576.36 637.942C573.538 623.566 575.864 624.943 576.992 621.009C579.757 611.369 572.492 616.86 573.58 610.678C574.748 604.038 574.731 603.858 569.151 600.065C562.368 595.455 564.809 600.664 572.496 529.734C579.006 469.658 578.344 450.951 581.397 436.588C596.263 366.642 620.852 352.666 605.068 322.6C598.815 310.689 519.542 214.549 507.862 196.807C502.339 188.418 489.657 177.196 476.049 172.482C475.7 172.361 473.954 171.69 474.096 171.062C474.554 169.032 481.624 172.64 482.138 171.434C482.507 170.566 481.719 170.628 471.696 160.916C470.207 159.473 471.638 158.586 472.886 159.366C474.949 160.653 477.002 161.955 479.069 163.234C479.692 163.62 480.349 163.948 480.99 164.302Z" fill="white"/>
<path d="M908.021 375.305C908.645 378.238 908.615 376.852 925.977 376.695C930.019 376.659 930.587 382.928 927.972 385.578C926.718 386.849 924.757 388.029 926.161 390.545C927.711 393.323 908.238 391.824 905.638 394.231C865.649 431.244 867.282 427.704 871.01 446.343C871.409 448.335 871.186 448.547 861.474 452.652C858.731 453.811 859.656 451.339 861.176 493.447C861.474 501.703 863.048 502.799 859.68 506.32C833.005 534.197 852.586 484.512 854.338 632.541C854.422 639.64 850.554 637.571 851.146 641.323C851.846 645.761 850.493 650.051 850.19 654.416C849.966 657.644 839.95 658.908 836.621 659.134C832.818 659.393 838.032 642.921 831.715 640.48C829.58 639.655 828.366 637.297 825.976 636.713C825.113 636.502 825.391 635.582 825.399 634.955C825.821 604.461 821.62 587.659 817.948 570.974C816.249 563.249 809.007 593.687 808.006 613.636C806.962 634.43 809.759 635.717 804.479 638.578C800.735 640.606 801.535 642.837 799.634 643.245C794.002 644.454 799.104 653.295 791.737 654.796C786.658 655.831 781.122 660.37 781.005 656.121C780.881 651.611 780.177 647.108 781.241 642.604C781.635 640.934 781.355 639.296 779.46 638.564C777.674 637.875 777.483 635.469 775.504 634.967C774.227 634.643 777.246 565.72 790.727 530.367C792.93 524.592 787.844 486.564 779.742 463.863C778.149 459.4 774.826 458.586 771.37 457.445C768.779 456.589 769.072 456.126 769.077 446.539C769.083 437.288 707.942 399.184 702.081 392.626C699.657 389.915 710.149 392.536 708.836 388.972C706.112 381.578 707.221 382.132 710.262 375.361C712.442 370.507 718.146 385.206 720.024 385.089C721.188 385.017 723.558 376.203 724.112 380.619C725.83 394.328 725.333 394.806 727.127 396.218C745.339 410.544 771.558 430.079 794.682 429.641C801.545 429.511 798.147 427.244 796.987 425.267C786.596 407.563 795.917 417.261 795.341 411.446C792.692 384.747 808.329 376.882 823.668 382.091C835.19 386.005 835.715 399.515 833.515 411.494C832.543 416.793 841.736 407.196 833.032 426.218C832.355 427.696 832.986 428.116 834.34 427.488C863.376 414.026 885.364 402.033 908.021 375.305Z" fill="white"/>
</svg>
