<svg width="369" height="58" viewBox="0 0 369 58" fill="none" xmlns="http://www.w3.org/2000/svg">
<path d="M58 29.1765C58 13.0588 45.0202 0 29 0C12.9798 0 0 13.0588 0 29.1765C0 43.7388 10.6049 55.8094 24.4688 58V37.6106H17.1018V29.1765H24.4688V22.7482C24.4688 15.4365 28.7954 11.3976 35.4221 11.3976C38.5957 11.3976 41.9144 11.9671 41.9144 11.9671V19.1435H38.2566C34.655 19.1435 33.5313 21.3929 33.5313 23.7V29.1765H41.5741L40.2878 37.6106H33.5313V58C47.3951 55.8094 58 43.7388 58 29.1765Z" fill="#FD841F"/>
<path d="M193.506 17.9115C185.986 17.9115 179.92 23.9784 179.92 31.5C179.92 39.0216 185.986 45.0885 193.506 45.0885C201.026 45.0885 207.091 39.0216 207.091 31.5C207.091 23.9784 201.026 17.9115 193.506 17.9115ZM193.506 40.3343C188.646 40.3343 184.674 36.3725 184.674 31.5C184.674 26.6275 188.635 22.6657 193.506 22.6657C198.377 22.6657 202.338 26.6275 202.338 31.5C202.338 36.3725 198.365 40.3343 193.506 40.3343V40.3343ZM210.816 17.3556C210.816 19.1178 209.397 20.5251 207.647 20.5251C205.885 20.5251 204.478 19.1059 204.478 17.3556C204.478 15.6053 205.897 14.1862 207.647 14.1862C209.397 14.1862 210.816 15.6053 210.816 17.3556ZM219.814 20.5724C219.613 16.3267 218.643 12.5659 215.534 9.46742C212.436 6.36891 208.676 5.39914 204.431 5.18627C200.056 4.93791 186.944 4.93791 182.569 5.18627C178.336 5.38731 174.576 6.35708 171.466 9.4556C168.357 12.5541 167.399 16.3149 167.186 20.5606C166.938 24.9363 166.938 38.0518 167.186 42.4276C167.387 46.6733 168.357 50.4341 171.466 53.5326C174.576 56.6311 178.324 57.6009 182.569 57.8137C186.944 58.0621 200.056 58.0621 204.431 57.8137C208.676 57.6127 212.436 56.6429 215.534 53.5326C218.631 50.4341 219.601 46.6733 219.814 42.4276C220.062 38.0518 220.062 24.9482 219.814 20.5724V20.5724ZM214.162 47.1227C213.24 49.4406 211.454 51.2264 209.125 52.1607C205.637 53.5444 197.36 53.2251 193.506 53.2251C189.651 53.2251 181.363 53.5326 177.887 52.1607C175.569 51.2383 173.784 49.4525 172.85 47.1227C171.466 43.6339 171.786 35.3554 171.786 31.5C171.786 27.6446 171.478 19.3543 172.85 15.8773C173.772 13.5594 175.557 11.7736 177.887 10.8393C181.375 9.45559 189.651 9.77491 193.506 9.77491C197.36 9.77491 205.649 9.46742 209.125 10.8393C211.443 11.7617 213.228 13.5475 214.162 15.8773C215.545 19.3661 215.226 27.6446 215.226 31.5C215.226 35.3554 215.545 43.6457 214.162 47.1227Z" fill="#FD841F"/>
<path d="M365.214 5H319.774C317.692 5 316 6.7154 316 8.82121V54.1788C316 56.2846 317.692 58 319.774 58H365.214C367.296 58 369 56.2846 369 54.1788V8.82121C369 6.7154 367.296 5 365.214 5ZM332.018 50.4286H324.163V25.1353H332.03V50.4286H332.018ZM328.091 21.6808C325.571 21.6808 323.536 19.6342 323.536 17.1261C323.536 14.6181 325.571 12.5714 328.091 12.5714C330.599 12.5714 332.645 14.6181 332.645 17.1261C332.645 19.646 330.61 21.6808 328.091 21.6808V21.6808ZM361.464 50.4286H353.609V38.125C353.609 35.1911 353.55 31.4172 349.527 31.4172C345.434 31.4172 344.807 34.6114 344.807 37.9121V50.4286H336.952V25.1353H344.488V28.5897H344.594C345.647 26.6022 348.214 24.5083 352.035 24.5083C359.985 24.5083 361.464 29.7491 361.464 36.5634V50.4286V50.4286Z" fill="#FD841F"/>
</svg>
